<svg id="Livello_1" data-name="Livello 1" xmlns="http://www.w3.org/2000/svg" viewBox="0 0 121.35 35.11"><defs><style>.cls-1{fill:#22b4ce;}</style></defs><title>logo-boolbnb-color-team-4</title><path class="cls-1" d="M34.36,26V8.73h3.77v6.46a4.43,4.43,0,0,1,1.59-1.35,4.7,4.7,0,0,1,2.11-.48,4.88,4.88,0,0,1,2.18.5,5.52,5.52,0,0,1,1.76,1.36,6.36,6.36,0,0,1,1.18,2,7.21,7.21,0,0,1,.43,2.52,7.57,7.57,0,0,1-.44,2.59,6.46,6.46,0,0,1-1.23,2.1,5.43,5.43,0,0,1-4.14,1.9,4.44,4.44,0,0,1-2.11-.5,4.06,4.06,0,0,1-1.54-1.4L37.83,26ZM40.81,23a2.49,2.49,0,0,0,1.4-.4,2.84,2.84,0,0,0,1-1.11,3.45,3.45,0,0,0,.36-1.59,3.53,3.53,0,0,0-.36-1.61,2.84,2.84,0,0,0-1-1.11,2.65,2.65,0,0,0-2.8,0,2.84,2.84,0,0,0-1,1.11,3.53,3.53,0,0,0-.36,1.61,3.45,3.45,0,0,0,.36,1.59,2.84,2.84,0,0,0,1,1.11A2.49,2.49,0,0,0,40.81,23Z"/><path class="cls-1" d="M54.62,26.38A6.81,6.81,0,0,1,52,25.9,6.28,6.28,0,0,1,50,24.53a5.93,5.93,0,0,1-1.38-2.06,6.71,6.71,0,0,1-.48-2.56,6.62,6.62,0,0,1,.49-2.58A6.48,6.48,0,0,1,50,15.24a6.33,6.33,0,0,1,2.11-1.38,7.14,7.14,0,0,1,5.2,0,6.41,6.41,0,0,1,2.08,1.38,6.21,6.21,0,0,1,1.38,2.07,6.76,6.76,0,0,1,.48,2.57,6.52,6.52,0,0,1-.5,2.58,6.36,6.36,0,0,1-1.38,2.07,6.57,6.57,0,0,1-2.11,1.37A6.87,6.87,0,0,1,54.62,26.38Zm0-3.4a2.48,2.48,0,0,0,1.39-.4,2.81,2.81,0,0,0,1-1.11,3.57,3.57,0,0,0,.35-1.59A3.66,3.66,0,0,0,57,18.27a2.81,2.81,0,0,0-1-1.11,2.48,2.48,0,0,0-1.39-.4,2.45,2.45,0,0,0-1.38.4,2.81,2.81,0,0,0-1,1.11,3.53,3.53,0,0,0-.35,1.61,3.44,3.44,0,0,0,.35,1.59,2.81,2.81,0,0,0,1,1.11A2.45,2.45,0,0,0,54.66,23Z"/><path class="cls-1" d="M68.47,26.38a6.88,6.88,0,0,1-2.58-.48,6.38,6.38,0,0,1-2.08-1.37,6,6,0,0,1-1.37-2.06A6.52,6.52,0,0,1,62,19.91a6.34,6.34,0,0,1,4-6.05,7.14,7.14,0,0,1,5.2,0,6.45,6.45,0,0,1,2.09,1.38,6.18,6.18,0,0,1,1.37,2.07,6.57,6.57,0,0,1,.49,2.57,6.7,6.7,0,0,1-.5,2.58,6.24,6.24,0,0,1-1.39,2.07,6.42,6.42,0,0,1-2.1,1.37A6.92,6.92,0,0,1,68.47,26.38Zm0-3.4a2.51,2.51,0,0,0,1.39-.4,2.86,2.86,0,0,0,1-1.11,3.45,3.45,0,0,0,.36-1.59,3.53,3.53,0,0,0-.36-1.61,2.86,2.86,0,0,0-1-1.11,2.62,2.62,0,0,0-2.78,0,2.78,2.78,0,0,0-1,1.11,3.53,3.53,0,0,0-.36,1.61,3.45,3.45,0,0,0,.36,1.59,2.78,2.78,0,0,0,1,1.11A2.51,2.51,0,0,0,68.52,23Z"/><path class="cls-1" d="M76.11,26V8.73h3.77V26Z"/><path class="cls-1" d="M81.31,26V8.73h3.77v6.46a4.47,4.47,0,0,1,1.6-1.35,4.63,4.63,0,0,1,2.1-.48,4.92,4.92,0,0,1,2.19.5,5.48,5.48,0,0,1,1.75,1.36,6.36,6.36,0,0,1,1.18,2,7.21,7.21,0,0,1,.43,2.52,7.57,7.57,0,0,1-.44,2.59,6.62,6.62,0,0,1-1.22,2.1,5.57,5.57,0,0,1-1.85,1.4,5.39,5.39,0,0,1-2.29.5,4.45,4.45,0,0,1-2.12-.5,4.06,4.06,0,0,1-1.54-1.4L84.78,26ZM87.76,23a2.47,2.47,0,0,0,1.4-.4,2.84,2.84,0,0,0,1-1.11,3.45,3.45,0,0,0,.36-1.59,3.53,3.53,0,0,0-.36-1.61,2.84,2.84,0,0,0-1-1.11,2.65,2.65,0,0,0-2.8,0,2.84,2.84,0,0,0-1,1.11A3.53,3.53,0,0,0,85,19.88a3.45,3.45,0,0,0,.36,1.59,2.84,2.84,0,0,0,1,1.11A2.49,2.49,0,0,0,87.76,23Z"/><path class="cls-1" d="M95.35,26V13.71h3.47l.11,1.62a4,4,0,0,1,1.46-1.44,4.26,4.26,0,0,1,2.13-.53,4.11,4.11,0,0,1,2.3.65,4.27,4.27,0,0,1,1.53,1.81,6.55,6.55,0,0,1,.54,2.77V26h-3.77V19.12a2.71,2.71,0,0,0-.5-1.72,1.63,1.63,0,0,0-1.37-.64,2,2,0,0,0-1.1.3,2.05,2.05,0,0,0-.75.82,2.41,2.41,0,0,0-.28,1.17v7Z"/><path class="cls-1" d="M108.32,26V8.73h3.77v6.46a4.47,4.47,0,0,1,1.6-1.35,4.69,4.69,0,0,1,2.1-.48,4.89,4.89,0,0,1,2.19.5,5.52,5.52,0,0,1,1.76,1.36,6.55,6.55,0,0,1,1.18,2,7.45,7.45,0,0,1,.43,2.52,7.57,7.57,0,0,1-.44,2.59,6.84,6.84,0,0,1-1.23,2.1,5.43,5.43,0,0,1-4.14,1.9,4.48,4.48,0,0,1-2.12-.5,4.1,4.1,0,0,1-1.53-1.4l-.1,1.55ZM114.78,23a2.49,2.49,0,0,0,1.4-.4,2.92,2.92,0,0,0,1-1.11,3.45,3.45,0,0,0,.36-1.59,3.53,3.53,0,0,0-.36-1.61,2.92,2.92,0,0,0-1-1.11,2.65,2.65,0,0,0-2.8,0,2.84,2.84,0,0,0-1,1.11,3.53,3.53,0,0,0-.36,1.61,3.45,3.45,0,0,0,.36,1.59,2.84,2.84,0,0,0,1,1.11A2.47,2.47,0,0,0,114.78,23Z"/><path class="cls-1" d="M21.11,1.08A13,13,0,0,0,15.59,0H0V35.11H15.84A14.62,14.62,0,0,0,22,33.91a9.43,9.43,0,0,0,4-3.34,9,9,0,0,0,1.43-5.06A10,10,0,0,0,26,20.45a16.44,16.44,0,0,0-4-4,24.53,24.53,0,0,0,2.08-2.29,9.36,9.36,0,0,0,1.52-3.32,8.92,8.92,0,0,0-1-6.74A8.15,8.15,0,0,0,21.11,1.08Zm-.9,14s-1.56-1.1-2.1-1.45A18.64,18.64,0,0,0,13,11.07a9,9,0,0,0-3-.17,5.57,5.57,0,0,0-2.33.94,5.81,5.81,0,0,0-2.47,4.89,5.94,5.94,0,0,0,2.46,4.89,5.68,5.68,0,0,0,2.37.94,7.13,7.13,0,0,0,2.93-.17,17,17,0,0,0,5.62-2.66c.52-.36,2.13-1.66,2.13-1.66s1.24,1,1.32,1.12a11,11,0,0,1,1.58,1.69A7.73,7.73,0,0,1,25,25.46a7.52,7.52,0,0,1-1.1,4.12,7.06,7.06,0,0,1-3.2,2.64,12.25,12.25,0,0,1-4.88.9H2.25V2H15.59a8.6,8.6,0,0,1,5.76,1.8,6.63,6.63,0,0,1,1.92,6.84,9.55,9.55,0,0,1-1.42,2.5A9.12,9.12,0,0,1,20.21,15.06Zm-1.4,1.43-.44.33c-2.63,2-4.47,3.05-6,3.39a6.36,6.36,0,0,1-1.38.16,4.35,4.35,0,0,1-.74-.06,3.22,3.22,0,0,1-1.42-.54,3.66,3.66,0,0,1-1.53-3,3.56,3.56,0,0,1,1.52-3,3.41,3.41,0,0,1,1.46-.54,5.6,5.6,0,0,1,2.09.1,16,16,0,0,1,6,2.9Z"/></svg>